<?xml version="1.0" encoding="UTF-8" standalone="no"?>
<!-- Created with Inkscape (http://www.inkscape.org/) -->

<svg
   width="247.65001mm"
   height="345.81042mm"
   viewBox="0 0 247.65001 345.81042"
   version="1.1"
   id="svg1"
   inkscape:version="1.3.2 (091e20e, 2023-11-25, custom)"
   sodipodi:docname="layout-noncreature-legendary.svg"
   xml:space="preserve"
   inkscape:export-filename="layout-noncreature-legendary.png"
   inkscape:export-xdpi="96"
   inkscape:export-ydpi="96"
   xmlns:inkscape="http://www.inkscape.org/namespaces/inkscape"
   xmlns:sodipodi="http://sodipodi.sourceforge.net/DTD/sodipodi-0.dtd"
   xmlns="http://www.w3.org/2000/svg"
   xmlns:svg="http://www.w3.org/2000/svg"><sodipodi:namedview
     id="namedview1"
     pagecolor="#ffffff"
     bordercolor="#000000"
     borderopacity="0.25"
     inkscape:showpageshadow="2"
     inkscape:pageopacity="0.0"
     inkscape:pagecheckerboard="0"
     inkscape:deskcolor="#d1d1d1"
     inkscape:document-units="mm"
     inkscape:zoom="0.36213173"
     inkscape:cx="265.0969"
     inkscape:cy="617.17873"
     inkscape:window-width="1920"
     inkscape:window-height="974"
     inkscape:window-x="-11"
     inkscape:window-y="-11"
     inkscape:window-maximized="1"
     inkscape:current-layer="layer1" /><defs
     id="defs1"><filter
       style="color-interpolation-filters:sRGB"
       inkscape:label="Greyscale"
       id="filter11"
       x="0"
       y="0"
       width="1"
       height="1"><feColorMatrix
         values="0.21 0.72 0.072 0.43 0 0.21 0.72 0.072 0.43 0 0.21 0.72 0.072 0.43 0 0 0 0 1 0 "
         id="feColorMatrix11" /></filter><filter
       style="color-interpolation-filters:sRGB"
       inkscape:label="Greyscale"
       id="filter11-6"
       x="0"
       y="0"
       width="1"
       height="1"><feColorMatrix
         values="0.21 0.72 0.072 0.43 0 0.21 0.72 0.072 0.43 0 0.21 0.72 0.072 0.43 0 0 0 0 1 0 "
         id="feColorMatrix11-7" /></filter></defs><g
     inkscape:groupmode="layer"
     id="layer3"
     inkscape:label="Background"
     style="display:none"
     sodipodi:insensitive="true"><rect
       style="display:inline;fill:#ffffff;fill-opacity:1;stroke:none;stroke-width:2.18635;stroke-linejoin:round;stroke-dasharray:none;stroke-opacity:1"
       id="rect22"
       width="247.65001"
       height="345.71277"
       x="0"
       y="0" /></g><g
     inkscape:groupmode="layer"
     id="layer2"
     inkscape:label="Card"
     style="display:inline" /><g
     inkscape:label="Calque 1"
     inkscape:groupmode="layer"
     id="layer1"><path
       id="rect1"
       style="fill:#ffffff;stroke:none;stroke-width:1.5;stroke-linejoin:round"
       d="M 0,0 V 345.81042 H 247.65 V 0 Z M 18.88051,37.769788 H 229.83559 V 192.83371 H 18.88051 Z" /><rect
       style="fill:none;stroke:#bbbbbb;stroke-width:1.5;stroke-linejoin:round;stroke-dasharray:none;stroke-opacity:1"
       id="rect2-6"
       width="210.95531"
       height="155.06361"
       x="18.880348"
       y="37.769989" /><rect
       style="fill:none;stroke:#bbbbbb;stroke-width:1.5;stroke-linejoin:round;stroke-dasharray:none;stroke-opacity:1"
       id="rect2"
       width="210.95531"
       height="155.06361"
       x="18.880379"
       y="37.770088" /><rect
       style="fill:none;stroke:#bbbbbb;stroke-width:1.5;stroke-linejoin:round;stroke-dasharray:none;stroke-opacity:1"
       id="rect2-0"
       width="210.95531"
       height="102.07725"
       x="18.880379"
       y="216.9444" /><path
       style="fill:none;stroke:#bbbbbb;stroke-width:1.5;stroke-linejoin:round;stroke-dasharray:none;stroke-opacity:1"
       d="m 18.88039,37.770085 c -3.1513,10e-7 -5.95911,0.0677 -7.89809,3.431376 C 9.11651,38.704753 7.17626,36.399506 6.96686,29.643528 L 9.85963,27.171989 C 6.41575,19.165005 9.5504,13.416449 13.82377,8.7828343 c 4.59537,5.2115787 15.32335,5.3126437 25.57326,5.8121037 1.50698,-3.839381 3.61058,-5.6041357 5.94126,-6.8453667 15.748,9.2765807 34.55181,7.5051787 54.76305,0.645789 l 2.19568,3.0997887 c 6.51624,-3.9200267 12.80199,-5.6502107 22.06113,-5.6829457"
       id="path2"
       sodipodi:nodetypes="cccccccccc" /><path
       style="fill:none;stroke:#bbbbbb;stroke-width:1.5;stroke-linejoin:round;stroke-dasharray:none;stroke-opacity:1"
       d="m 10.9823,41.201461 v 10.268051 l 4.5851,10.138895 V 194.49933 c -4.95006,6.91437 -5.03097,14.33566 0,21.45274 v 106.43731 l 108.26158,-0.54795"
       id="path3"
       sodipodi:nodetypes="ccccccc" /><path
       style="fill:none;stroke:#bbbbbb;stroke-width:1.5;stroke-linejoin:round;stroke-dasharray:none;stroke-opacity:1"
       d="m 237.7339,41.201461 v 10.26805 l -4.5851,10.138886 V 194.49933 c 4.95005,6.91437 5.03097,14.33566 0,21.45274 v 106.43731 l -109.31982,-0.54795"
       id="path3-5"
       sodipodi:nodetypes="ccccccc" /><path
       style="fill:none;stroke:#bbbbbb;stroke-width:1.5;stroke-linejoin:round;stroke-dasharray:none;stroke-opacity:1"
       d="m 229.8546,213.91004 c 4.8848,-6.64401 4.20063,-12.38354 0.10744,-17.84664 l -106.13306,-0.24742 -105.604,0.24742 c -4.09318,5.4631 -4.77735,11.20263 0.10744,17.84664 l 105.49656,-0.12916 z"
       id="path4-0"
       sodipodi:nodetypes="ccccccc" /><path
       style="fill:none;stroke:#bbbbbb;stroke-width:1.5;stroke-linejoin:round;stroke-dasharray:none;stroke-opacity:1"
       d="m 229.96204,34.787813 c 4.8848,-6.64401 4.20063,-12.38354 0.10744,-17.84664 l -106.13306,-0.24742 -105.604,0.24742 c -4.09319,5.4631 -4.77735,11.20263 0.10744,17.84664 l 105.49656,-0.12916 z"
       id="path4-0-5"
       sodipodi:nodetypes="ccccccc" /><path
       style="fill:none;stroke:#bbbbbb;stroke-width:1.5;stroke-linejoin:round;stroke-dasharray:none;stroke-opacity:1"
       d="m 229.8358,37.770085 c 3.15131,10e-7 5.95912,0.0677 7.8981,3.431376 1.86579,-2.496708 3.80603,-4.801955 4.01544,-11.557933 l -2.89277,-2.471539 c 3.44388,-8.006984 0.30923,-13.75554 -3.96414,-18.3891547 -4.59537,5.2115787 -15.32335,5.3126437 -25.57326,5.8121037 -1.50699,-3.839381 -3.61059,-5.6041357 -5.94127,-6.8453667 -15.74799,9.2765807 -34.55181,7.5051787 -54.76294,0.645789 l -2.19568,3.0997887 C 139.90304,7.5751223 133.61729,5.8449383 124.35815,5.8122033"
       id="path2-3"
       sodipodi:nodetypes="cccccccccc" /><text
       xml:space="preserve"
       style="font-style:normal;font-variant:normal;font-weight:normal;font-stretch:normal;font-size:42.3333px;font-family:magic-font;-inkscape-font-specification:magic-font;text-align:end;letter-spacing:0px;text-anchor:end;fill:#ebebeb;fill-opacity:1;stroke:none;stroke-width:1.5;stroke-linejoin:round;stroke-dasharray:none;stroke-opacity:1"
       x="206.68886"
       y="279.80658"
       id="text4"><tspan
         sodipodi:role="line"
         id="tspan4"
         style="font-style:normal;font-variant:normal;font-weight:normal;font-stretch:normal;font-size:42.3333px;font-family:magic-font;-inkscape-font-specification:magic-font;fill:#ebebeb;fill-opacity:1;stroke:none;stroke-width:1.5;stroke-opacity:1"
         x="206.68886"
         y="279.80658">Playtest</tspan></text></g></svg>
